# xmcd
#
# Track frame offsets: 
#        150
#        9307
#        27680
#        41392
#        59696
#        73792
#        83355
#        97127
#        106317
#        125902
#
# Disc length: 1861 seconds
#
# Revision: 0
# Processed by: cddbd v1.5PL3 Copyright (c) Steve Scherf et al.
# Submitted via: ExactAudioCopy v0.95a5
#
DISCID=8707430a
DTITLE=Tennessee Gentlemen - Sunday Morning Gospel Bluegrass
DYEAR=1980
DGENRE=Bluegrass
TTITLE0=At Calvary
TTITLE1=He's My Friend
TTITLE2=Touring That City
TTITLE3=Satan's Jeweled Crown
TTITLE4=I Came On Business For The King
TTITLE5=Glory Bound
TTITLE6=I'm On The Other Side Of Life , Now
TTITLE7=Leaning On The Everlasting Arms
TTITLE8=Until Then
TTITLE9=In The Garden
EXTD=
EXTT0=
EXTT1=
EXTT2=
EXTT3=
EXTT4=
EXTT5=
EXTT6=
EXTT7=
EXTT8=
EXTT9=
PLAYORDER=
